<svg width="22" height="20" viewBox="0 0 22 20" fill="none" xmlns="http://www.w3.org/2000/svg">
<g clip-path="url(#clip0)">
<path d="M20.9512 5.88005C20.9043 4.81738 20.7325 4.0868 20.4863 3.45374C20.2323 2.78176 19.8416 2.18014 19.3298 1.68002C18.8296 1.1721 18.224 0.777435 17.5598 0.527447C16.9231 0.281274 16.1964 0.109427 15.1337 0.0625732C14.0631 0.0117516 13.7232 0 11.0078 0C8.29244 0 7.95256 0.0117516 6.88591 0.0586052C5.82324 0.105459 5.09266 0.277459 4.45975 0.523479C3.78762 0.777435 3.186 1.16814 2.68587 1.68002C2.17796 2.18014 1.78345 2.78573 1.53331 3.44992C1.28713 4.0868 1.11529 4.81341 1.06843 5.87609C1.01761 6.9467 1.00586 7.28658 1.00586 10.002C1.00586 12.7173 1.01761 13.0572 1.06446 14.1239C1.11132 15.1865 1.28332 15.9171 1.52949 16.5502C1.78345 17.2221 2.17796 17.8238 2.68587 18.3239C3.186 18.8318 3.79159 19.2265 4.45578 19.4765C5.09266 19.7226 5.81927 19.8945 6.8821 19.9413C7.94859 19.9883 8.28862 19.9999 11.004 19.9999C13.7194 19.9999 14.0593 19.9883 15.1259 19.9413C16.1886 19.8945 16.9192 19.7226 17.5521 19.4765C18.8962 18.9568 19.9588 17.8941 20.4785 16.5502C20.7245 15.9133 20.8965 15.1865 20.9434 14.1239C20.9902 13.0572 21.002 12.7173 21.002 10.002C21.002 7.28658 20.998 6.9467 20.9512 5.88005ZM19.1501 14.0457C19.1071 15.0225 18.943 15.5499 18.8063 15.9015C18.4702 16.7728 17.7787 17.4643 16.9074 17.8004C16.5558 17.9372 16.0245 18.1012 15.0516 18.1441C13.9967 18.1911 13.6803 18.2027 11.0118 18.2027C8.34326 18.2027 8.02292 18.1911 6.97184 18.1441C5.99508 18.1012 5.46764 17.9372 5.11601 17.8004C4.68242 17.6402 4.28775 17.3862 3.96741 17.0541C3.63531 16.7298 3.38135 16.3391 3.22111 15.9055C3.08436 15.5539 2.9203 15.0225 2.87741 14.0497C2.8304 12.9948 2.8188 12.6783 2.8188 10.0097C2.8188 7.34122 2.8304 7.02087 2.87741 5.96995C2.9203 4.99319 3.08436 4.46575 3.22111 4.11412C3.38135 3.68038 3.63531 3.28586 3.97137 2.96536C4.29553 2.63327 4.68624 2.37931 5.11997 2.21921C5.47161 2.08247 6.00302 1.9184 6.97581 1.87537C8.0307 1.82851 8.34723 1.81676 11.0156 1.81676C13.6881 1.81676 14.0045 1.82851 15.0555 1.87537C16.0323 1.9184 16.5597 2.08247 16.9114 2.21921C17.345 2.37931 17.7396 2.63327 18.06 2.96536C18.3921 3.28967 18.646 3.68038 18.8063 4.11412C18.943 4.46575 19.1071 4.99701 19.1501 5.96995C19.197 7.02484 19.2087 7.34122 19.2087 10.0097C19.2087 12.6783 19.197 12.9908 19.1501 14.0457Z" fill="#F5C300"/>
<path d="M11.0078 4.86426C8.17144 4.86426 5.87012 7.16543 5.87012 10.002C5.87012 12.8385 8.17144 15.1397 11.0078 15.1397C13.8444 15.1397 16.1456 12.8385 16.1456 10.002C16.1456 7.16543 13.8444 4.86426 11.0078 4.86426ZM11.0078 13.3347C9.16773 13.3347 7.67513 11.8422 7.67513 10.002C7.67513 8.16172 9.16773 6.66927 11.0078 6.66927C12.8481 6.66927 14.3406 8.16172 14.3406 10.002C14.3406 11.8422 12.8481 13.3347 11.0078 13.3347Z" fill="#F5C300"/>
<path d="M17.5484 4.6611C17.5484 5.32346 17.0114 5.86052 16.3488 5.86052C15.6865 5.86052 15.1494 5.32346 15.1494 4.6611C15.1494 3.99858 15.6865 3.46167 16.3488 3.46167C17.0114 3.46167 17.5484 3.99858 17.5484 4.6611Z" fill="#F5C300"/>
</g>
<defs>
<clipPath id="clip0">
<rect x="0.970703" width="20.0391" height="20" fill="white"/>
</clipPath>
</defs>
</svg>
