<svg width="20" height="20" viewBox="0 0 20 20" fill="none" xmlns="http://www.w3.org/2000/svg">
<path fill-rule="evenodd" clip-rule="evenodd" d="M11.627 1.88976C11.627 1.36377 12.0533 0.937378 12.5793 0.937378H16.3889C17.1466 0.937378 17.8733 1.2384 18.4092 1.77422C18.945 2.31003 19.246 3.03676 19.246 3.79452V17.1279C19.246 17.8856 18.945 18.6123 18.4092 19.1482C17.8733 19.684 17.1466 19.985 16.3889 19.985H12.5793C12.0533 19.985 11.627 19.5586 11.627 19.0326C11.627 18.5066 12.0533 18.0802 12.5793 18.0802H16.3889C16.6414 18.0802 16.8837 17.9799 17.0623 17.8013C17.2409 17.6227 17.3412 17.3804 17.3412 17.1279V3.79452C17.3412 3.54193 17.2409 3.29969 17.0623 3.12109C16.8837 2.94248 16.6414 2.84214 16.3889 2.84214H12.5793C12.0533 2.84214 11.627 2.41574 11.627 1.88976Z" fill="#EEEEEE"/>
<path fill-rule="evenodd" clip-rule="evenodd" d="M7.14418 5.02589C7.51611 4.65397 8.11912 4.65397 8.49105 5.02589L13.253 9.7878C13.6249 10.1597 13.6249 10.7627 13.253 11.1347L8.49105 15.8966C8.11912 16.2685 7.51611 16.2685 7.14418 15.8966C6.77225 15.5246 6.77225 14.9216 7.14418 14.5497L11.2327 10.4612L7.14418 6.37276C6.77225 6.00084 6.77225 5.39782 7.14418 5.02589Z" fill="#EEEEEE"/>
<path fill-rule="evenodd" clip-rule="evenodd" d="M0.198242 10.4612C0.198242 9.93518 0.624638 9.50879 1.15062 9.50879H12.5792C13.1052 9.50879 13.5316 9.93518 13.5316 10.4612C13.5316 10.9872 13.1052 11.4136 12.5792 11.4136H1.15062C0.624638 11.4136 0.198242 10.9872 0.198242 10.4612Z" fill="#EEEEEE"/>
</svg>
